<svg width="20" height="20" viewBox="0 0 20 20" fill="none" xmlns="http://www.w3.org/2000/svg">
<path d="M9.99984 18.3332C14.6022 18.3332 18.3332 14.6022 18.3332 9.99984C18.3332 5.39746 14.6022 1.6665 9.99984 1.6665C5.39746 1.6665 1.6665 5.39746 1.6665 9.99984C1.6665 14.6022 5.39746 18.3332 9.99984 18.3332Z" stroke="#D3D2D3" stroke-width="1.2"/>
<path d="M10 5V15M12.5 7.91667C12.5 6.76667 11.3808 5.83333 10 5.83333C8.61917 5.83333 7.5 6.76667 7.5 7.91667C7.5 9.06667 8.61917 10 10 10C11.3808 10 12.5 10.9333 12.5 12.0833C12.5 13.2333 11.3808 14.1667 10 14.1667C8.61917 14.1667 7.5 13.2333 7.5 12.0833" stroke="#D3D2D3" stroke-width="1.2" stroke-linecap="round"/>
</svg>
