<svg width="20" height="20" viewBox="0 0 20 20" fill="none" xmlns="http://www.w3.org/2000/svg">
<path d="M15.5879 6.6499H16.7129C17.0234 6.6499 17.2754 6.90004 17.2754 7.20824V12.7916C17.2754 13.0998 17.0234 13.3499 16.7129 13.3499H15.5879C15.2774 13.3499 15.0254 13.0998 15.0254 12.7916V7.20824C15.0254 6.90004 15.2774 6.6499 15.5879 6.6499Z" stroke="white" stroke-width="1.2"/>
<path d="M13.357 4.3999H14.4695C14.7766 4.3999 15.0258 4.65078 15.0258 4.9599V15.0399C15.0258 15.349 14.7766 15.5999 14.4695 15.5999H13.357C13.05 15.5999 12.8008 15.349 12.8008 15.0399V4.9599C12.8008 4.65078 13.05 4.3999 13.357 4.3999Z" stroke="white" stroke-width="1.2"/>
<path d="M5.5127 4.3999H6.6377C6.9482 4.3999 7.2002 4.65078 7.2002 4.9599V15.0399C7.2002 15.349 6.9482 15.5999 6.6377 15.5999H5.5127C5.2022 15.5999 4.9502 15.349 4.9502 15.0399V4.9599C4.9502 4.65078 5.2022 4.3999 5.5127 4.3999Z" stroke="white" stroke-width="1.2"/>
<path d="M3.28184 6.6499H4.39434C4.70139 6.6499 4.95059 6.90004 4.95059 7.20824V12.7916C4.95059 13.0998 4.70139 13.3499 4.39434 13.3499H3.28184C2.97479 13.3499 2.72559 13.0998 2.72559 12.7916V7.20824C2.72559 6.90004 2.97479 6.6499 3.28184 6.6499Z" stroke="white" stroke-width="1.2"/>
<path d="M17.2754 10H18.9504" stroke="white" stroke-width="1.2"/>
<path d="M7.2002 10H12.8002" stroke="white" stroke-width="1.2"/>
<path d="M1.02539 10H2.72539" stroke="white" stroke-width="1.2"/>
</svg>
