<svg width="20" height="20" viewBox="0 0 20 20" fill="none" xmlns="http://www.w3.org/2000/svg">
<path d="M15.5874 6.6499H16.7124C17.0229 6.6499 17.2749 6.90004 17.2749 7.20824V12.7916C17.2749 13.0998 17.0229 13.3499 16.7124 13.3499H15.5874C15.2769 13.3499 15.0249 13.0998 15.0249 12.7916V7.20824C15.0249 6.90004 15.2769 6.6499 15.5874 6.6499Z" stroke="white" stroke-width="1.2"/>
<path d="M13.3561 4.3999H14.4686C14.7756 4.3999 15.0248 4.65078 15.0248 4.9599V15.0399C15.0248 15.349 14.7756 15.5999 14.4686 15.5999H13.3561C13.049 15.5999 12.7998 15.349 12.7998 15.0399V4.9599C12.7998 4.65078 13.049 4.3999 13.3561 4.3999Z" stroke="#D3D2D3" stroke-width="1.2"/>
<path d="M5.5127 4.3999H6.6377C6.9482 4.3999 7.2002 4.65078 7.2002 4.9599V15.0399C7.2002 15.349 6.9482 15.5999 6.6377 15.5999H5.5127C5.2022 15.5999 4.9502 15.349 4.9502 15.0399V4.9599C4.9502 4.65078 5.2022 4.3999 5.5127 4.3999Z" stroke="#D3D2D3" stroke-width="1.2"/>
<path d="M3.28135 6.6499H4.39385C4.7009 6.6499 4.9501 6.90004 4.9501 7.20824V12.7916C4.9501 13.0998 4.7009 13.3499 4.39385 13.3499H3.28135C2.9743 13.3499 2.7251 13.0998 2.7251 12.7916V7.20824C2.7251 6.90004 2.9743 6.6499 3.28135 6.6499Z" stroke="#D3D2D3" stroke-width="1.2"/>
<path d="M17.2749 10H18.9499" stroke="#D3D2D3" stroke-width="1.2"/>
<path d="M7.2002 10H12.8002" stroke="#D3D2D3" stroke-width="1.2"/>
<path d="M1.0249 10H2.7249" stroke="#D3D2D3" stroke-width="1.2"/>
</svg>
