<svg width="20" height="20" viewBox="0 0 20 20" fill="none" xmlns="http://www.w3.org/2000/svg">
<path d="M13.3332 5.83333C13.3332 6.71739 12.982 7.56524 12.3569 8.19036C11.7317 8.81548 10.8839 9.16667 9.99984 9.16667C9.11578 9.16667 8.26794 8.81548 7.64281 8.19036C7.01769 7.56524 6.6665 6.71739 6.6665 5.83333C6.6665 4.94928 7.01769 4.10143 7.64281 3.47631C8.26794 2.85119 9.11578 2.5 9.99984 2.5C10.8839 2.5 11.7317 2.85119 12.3569 3.47631C12.982 4.10143 13.3332 4.94928 13.3332 5.83333Z" stroke="white" stroke-width="1.2"/>
<path d="M11.6665 11.6665H8.33317C7.2281 11.6665 6.16829 12.1055 5.38689 12.8869C4.60549 13.6683 4.1665 14.7281 4.1665 15.8332C4.1665 16.2752 4.3421 16.6991 4.65466 17.0117C4.96722 17.3242 5.39114 17.4998 5.83317 17.4998H14.1665C14.6085 17.4998 15.0325 17.3242 15.345 17.0117C15.6576 16.6991 15.8332 16.2752 15.8332 15.8332C15.8332 14.7281 15.3942 13.6683 14.6128 12.8869C13.8314 12.1055 12.7716 11.6665 11.6665 11.6665Z" stroke="white" stroke-width="1.2" stroke-linejoin="round"/>
</svg>
