<svg width="20" height="20" viewBox="0 0 20 20" fill="none" xmlns="http://www.w3.org/2000/svg">
<path d="M19.1663 2.50838C19.1663 2.50838 17.4847 3.50171 16.5497 3.78338C16.0478 3.20631 15.3808 2.79729 14.6389 2.61165C13.897 2.42601 13.1159 2.47271 12.4014 2.74542C11.6869 3.01814 11.0734 3.50371 10.6438 4.13648C10.2143 4.76924 9.98942 5.51866 9.99967 6.28338V7.11671C8.5352 7.15469 7.08407 6.82989 5.77551 6.17125C4.46696 5.51261 3.34161 4.54058 2.49967 3.34171C2.49967 3.34171 -0.833659 10.8417 6.66634 14.175C4.95011 15.34 2.90564 15.9242 0.833008 15.8417C8.33301 20.0084 17.4997 15.8417 17.4997 6.25838C17.4991 6.02616 17.4769 5.7956 17.433 5.56671C18.283 4.72838 19.1663 2.50838 19.1663 2.50838Z" stroke="white" stroke-width="1.2" stroke-linecap="round" stroke-linejoin="round"/>
</svg>
