<svg width="20" height="20" viewBox="0 0 20 20" fill="none" xmlns="http://www.w3.org/2000/svg">
<path d="M13.3337 5.83333C13.3337 6.71739 12.9825 7.56524 12.3573 8.19036C11.7322 8.81548 10.8844 9.16667 10.0003 9.16667C9.11627 9.16667 8.26842 8.81548 7.6433 8.19036C7.01818 7.56524 6.66699 6.71739 6.66699 5.83333C6.66699 4.94928 7.01818 4.10143 7.6433 3.47631C8.26842 2.85119 9.11627 2.5 10.0003 2.5C10.8844 2.5 11.7322 2.85119 12.3573 3.47631C12.9825 4.10143 13.3337 4.94928 13.3337 5.83333Z" stroke="white" stroke-width="1.2"/>
<path d="M11.667 11.6667H8.33366C7.22859 11.6667 6.16878 12.1057 5.38738 12.8871C4.60598 13.6685 4.16699 14.7283 4.16699 15.8334C4.16699 16.2754 4.34259 16.6994 4.65515 17.0119C4.96771 17.3245 5.39163 17.5001 5.83366 17.5001H14.167C14.609 17.5001 15.0329 17.3245 15.3455 17.0119C15.6581 16.6994 15.8337 16.2754 15.8337 15.8334C15.8337 14.7283 15.3947 13.6685 14.6133 12.8871C13.8319 12.1057 12.7721 11.6667 11.667 11.6667Z" stroke="white" stroke-width="1.2" stroke-linejoin="round"/>
</svg>
